<svg xmlns="http://www.w3.org/2000/svg" viewBox="0 0 1000 1000" role="img" aria-labelledby="title desc">
<title id="title">Soft Collision cover</title><desc id="desc">Rondo edition artwork for Vale &amp; Lio</desc>
<defs><linearGradient id="g" x1="0" y1="0" x2="1" y2="1"><stop stop-color="#160810"/><stop offset="1" stop-color="#e66d9a" stop-opacity=".28"/></linearGradient><filter id="grain"><feTurbulence baseFrequency=".72" numOctaves="3" seed="18"/><feColorMatrix values="1 0 0 0 0 0 1 0 0 0 0 0 1 0 0 0 0 0 .1 0"/></filter></defs>
<rect width="1000" height="1000" fill="url(#g)"/><rect width="1000" height="1000" filter="url(#grain)" opacity=".24"/>
<circle cx="472" cy="459" r="163" fill="none" stroke="#f5a2c2" stroke-opacity="0.115" stroke-width="3" stroke-dasharray="59 27" transform="rotate(-15 500 440)"/><circle cx="500" cy="440" r="221" fill="none" stroke="#f5a2c2" stroke-opacity="0.150" stroke-width="4" stroke-dasharray="78 38" transform="rotate(-2 500 440)"/><circle cx="528" cy="421" r="279" fill="none" stroke="#f5a2c2" stroke-opacity="0.185" stroke-width="5" stroke-dasharray="97 49" transform="rotate(11 500 440)"/><circle cx="556" cy="402" r="337" fill="none" stroke="#f5a2c2" stroke-opacity="0.220" stroke-width="6" stroke-dasharray="116 60" transform="rotate(24 500 440)"/><path d="M 80 820 L 156 416" stroke="#e66d9a" stroke-opacity="0.160" stroke-width="2"/><path d="M 172 803 L 187 470" stroke="#e66d9a" stroke-opacity="0.215" stroke-width="3"/><path d="M 264 786 L 218 524" stroke="#e66d9a" stroke-opacity="0.270" stroke-width="4"/><path d="M 356 769 L 249 578" stroke="#e66d9a" stroke-opacity="0.325" stroke-width="2"/><path d="M 448 752 L 280 632" stroke="#e66d9a" stroke-opacity="0.380" stroke-width="3"/><path d="M 540 735 L 311 686" stroke="#e66d9a" stroke-opacity="0.435" stroke-width="4"/><path d="M 632 718 L 342 740" stroke="#e66d9a" stroke-opacity="0.490" stroke-width="2"/><path d="M 724 701 L 373 794" stroke="#e66d9a" stroke-opacity="0.545" stroke-width="3"/><circle cx="516" cy="536" r="18" fill="#e66d9a"/><path d="M84 86H916M84 914H916" stroke="#f5a2c2" stroke-opacity=".34"/>
<g fill="#f5a2c2" font-family="Arial,Helvetica,sans-serif"><text x="82" y="126" font-size="22" font-weight="700" letter-spacing="7">RONDO / EDITION 01</text><text x="918" y="126" text-anchor="end" font-size="18" letter-spacing="5">VALE &amp; LIO</text><g font-size="64" font-weight="800" letter-spacing="-3"><text x="82" y="730">SOFT COLLISION</text></g><text x="82" y="870" font-size="18" letter-spacing="5" opacity=".72">A LISTENING CHAPTER</text></g>
</svg>